<svg xmlns="http://www.w3.org/2000/svg" width="124.607" height="108.291" viewBox="0 0 124.607 108.291">
  <g id="组_243" data-name="组 243" transform="translate(-93.98 -130.095)">
    <path id="路径_101" data-name="路径 101" d="M189.759,166.1a36,36,0,1,1-36-36,36,36,0,0,1,36,36" fill="#fff"/>
    <path id="路径_102" data-name="路径 102" d="M157.382,145.66a21.157,21.157,0,0,0-7.24,0c-.18.031-.25-.144-.111-.248s3.732-2.837,3.732-2.837,3.606,2.746,3.729,2.837c.14.1.07.279-.11.248m-6.232,17.826a.414.414,0,0,0-.24.236c.755.582,1.277,1.9,2.853,1.9s2.1-1.32,2.85-1.9a.416.416,0,0,0-.239-.236,14.819,14.819,0,0,1-5.224,0m2.613-2.225c-.437,0-.535-.166-.832-.164a1.479,1.479,0,0,0-.957.436.471.471,0,0,0,.121.283c.641.1.928.453,1.668.453s1.027-.356,1.664-.453a.462.462,0,0,0,.123-.283,1.473,1.473,0,0,0-.955-.436c-.3,0-.394.164-.832.164m35.941,6.807q-.069,1.292-.228,2.558c-4.074.676-5.533-2.957-9.705-2.775a26.382,26.382,0,0,1,.605,2.709c3.446,0,4.832,3.217,8.66,2.742q-.3,1.476-.722,2.91c-3.028.3-4.094-2.711-7.6-2.629.027.5.043,1,.043,1.512,0,.283-.008.563-.016.842,2.989-.035,3.961,2.726,6.809,2.6q-.535,1.449-1.191,2.839c-2.047-.113-2.75-2.736-5.864-2.527-.093.672-.211,1.338-.355,1.994,2.707-.189,3.287,2.3,5.223,2.5q-.74,1.353-1.59,2.631c-1.149-.613-2.143-2.469-4.317-2.584q.335-1.03.586-2.1a9.019,9.019,0,0,1-5.988-2.437c.6-3.416-4.7-6.893-4.7-9.395,0-2.715,1.374-4.218,1.374-7.881a11.469,11.469,0,0,0-3.308-7.681,6.647,6.647,0,0,0-1.234-.992,12.853,12.853,0,0,1,3.234,8.052c0,3.45-1.605,5.27-1.605,8.453s4.652,5.938,4.652,9.217c0,1.293-.412,2.553-1.77,5.03a10.506,10.506,0,0,0,6.567,3.226,1.009,1.009,0,0,0,1.08-.621q.264-.58.5-1.172c1.891.074,2.758,1.795,3.8,2.483q-.859,1.153-1.809,2.238c-.7-.779-1.646-2.088-3.027-2.451-.246.482-.51.955-.785,1.42,1.189.322,2,1.523,2.632,2.31-.677.7-1.386,1.379-2.119,2.026a6.938,6.938,0,0,0-1.978-2.11c-.295.4-.6.791-.922,1.172a6.216,6.216,0,0,1,1.676,1.969q-1.272,1.024-2.637,1.935c-.449-3.656-5.439-6.162-4.094-10.406a5.562,5.562,0,0,0-.967,2.809c0,3.072,3.268,5.508,3.53,8.56q-1.02.607-2.076,1.149c-.118-3.356-3.582-7.024-3.582-9.78,0-3.072,4.024-6.158,4.024-9.787s-4.642-6.142-4.642-9.328,1.973-5.017,1.973-9.1a10.9,10.9,0,0,0-3.613-7.952A5.973,5.973,0,0,0,163,151.4c2.071,2.482,3.27,4.736,3.27,8.152,0,3.838-2.262,5.969-2.262,9.729s4.555,5.849,4.555,9.351-4.242,6.459-4.242,10.057c0,3.273,3.738,6.545,3.794,10.43-.818.355-1.65.683-2.5.978.477-3.926-3.732-7.974-3.732-11.178,0-3.5,4.4-6.509,4.4-10.287s-4.472-5.533-4.472-9.408,2.746-6.021,2.746-10.3a10.435,10.435,0,0,0-4.057-8.2c-.051-.039-.1-.078-.152-.115-.227-.168-.412.035-.252.234a11.009,11.009,0,0,1,2.613,7.465c0,3.916-3.152,7.1-3.152,10.9,0,4.476,4.234,5.757,4.234,9.429s-4.539,6.612-4.539,10.512c0,3.617,4.3,7.631,3.559,11.807q-1.293.333-2.621.574c.8-5.2-3.409-8.932-3.409-12.33,0-3.684,4.7-6.965,4.7-10.563,0-3.39-3.375-4.5-3.817-7.972a.815.815,0,0,0-.967-.737,7.807,7.807,0,0,1-5.886,0,.814.814,0,0,0-.965.737c-.442,3.472-3.817,4.582-3.817,7.972,0,3.6,4.7,6.879,4.7,10.563,0,3.4-4.213,7.133-3.409,12.33q-1.326-.24-2.619-.574c-.738-4.176,3.559-8.19,3.559-11.807,0-3.9-4.541-6.838-4.541-10.512s4.234-4.953,4.234-9.429c0-3.8-3.152-6.979-3.152-10.9a11,11,0,0,1,2.615-7.465c.16-.2-.025-.4-.254-.234l-.152.115a10.439,10.439,0,0,0-4.055,8.2c0,4.282,2.746,6.428,2.746,10.3s-4.472,5.633-4.472,9.408,4.4,6.785,4.4,10.287c0,3.2-4.207,7.252-3.732,11.178-.848-.295-1.68-.623-2.5-.978.056-3.885,3.793-7.157,3.793-10.43,0-3.6-4.239-6.553-4.239-10.057s4.555-5.593,4.555-9.351-2.262-5.891-2.262-9.729c0-3.416,1.2-5.67,3.27-8.152a5.987,5.987,0,0,0-1.233.853,10.906,10.906,0,0,0-3.615,7.952c0,4.082,1.977,5.914,1.977,9.1s-4.643,5.7-4.643,9.328,4.026,6.715,4.026,9.787c0,2.756-3.465,6.424-3.582,9.78q-1.062-.543-2.081-1.149c.262-3.052,3.534-5.488,3.534-8.56a5.545,5.545,0,0,0-.969-2.809c1.346,4.244-3.645,6.75-4.094,10.406q-1.365-.907-2.639-1.935a6.281,6.281,0,0,1,1.676-1.969c-.318-.381-.627-.771-.922-1.172a6.975,6.975,0,0,0-1.978,2.11c-.733-.647-1.442-1.323-2.119-2.026.631-.787,1.443-1.988,2.633-2.31q-.414-.7-.784-1.42c-1.382.363-2.326,1.672-3.027,2.451q-.95-1.084-1.813-2.238c1.049-.688,1.915-2.409,3.807-2.483q.237.592.5,1.172a1.012,1.012,0,0,0,1.08.621,10.515,10.515,0,0,0,6.571-3.226c-1.362-2.477-1.774-3.737-1.774-5.03,0-3.279,4.656-6.035,4.656-9.217s-1.6-5-1.6-8.453a12.842,12.842,0,0,1,3.234-8.052,6.68,6.68,0,0,0-1.234.992,11.458,11.458,0,0,0-3.311,7.681c0,3.663,1.373,5.166,1.373,7.881,0,2.5-5.3,5.979-4.7,9.395a9.019,9.019,0,0,1-5.988,2.437q.252,1.066.586,2.1c-2.176.115-3.172,1.971-4.319,2.584q-.846-1.281-1.589-2.631c1.935-.2,2.517-2.689,5.222-2.5-.142-.656-.261-1.322-.355-1.994-3.112-.209-3.819,2.414-5.863,2.527q-.654-1.387-1.19-2.839c2.848.13,3.818-2.633,6.807-2.6-.01-.279-.014-.559-.014-.842,0-.508.016-1.012.043-1.512-3.5-.082-4.57,2.928-7.6,2.629q-.418-1.433-.72-2.91c3.826.475,5.215-2.744,8.658-2.742a25.372,25.372,0,0,1,.607-2.709c-4.174-.182-5.633,3.451-9.705,2.775-.107-.843-.181-1.7-.228-2.558,4.736.531,6.511-3.364,10.824-2.887a25.336,25.336,0,0,1,1.41-2.988c-5.406-.95-7.242,3.57-12.273,2.877a36,36,0,0,1,71.965,0c-5.034.693-6.87-3.827-12.276-2.877a25.35,25.35,0,0,1,1.412,2.988c4.313-.477,6.086,3.418,10.824,2.887m-51.418-15.1a9.363,9.363,0,0,0-8.6.928,9.388,9.388,0,0,0-3.779-6.182.325.325,0,0,0-.532.307c.418,5.387-2.732,10.066-6.6,14.178,3.992,1.2,7.39-3.94,12.566-2.145a27.193,27.193,0,0,1,6.949-7.086m15.477-3.258c-3.342,0-6.141,1.891-6.875,4.332-.057.188.02.309.236.211a4.947,4.947,0,0,1,2.03-.4,4.168,4.168,0,0,1,3.273,1.371,5.817,5.817,0,0,1-.014,3.394c-.56-.125-.763-.56-1.31-.56s-.973.387-1.9.387-1.04-.44-1.649-.44c-.719,0-.851.74-.851,1.576,0,3.723,3.421,8.848,7.062,8.848s7.061-5.125,7.061-8.848c0-.836-.172-1.55-.924-1.648a2.269,2.269,0,0,1-1.576.512c-.93,0-1.186-.387-1.735-.387-.66,0-.594,1.394-1.381,1.473a6.626,6.626,0,0,1-.111-4.307,4.168,4.168,0,0,1,3.273-1.371,4.914,4.914,0,0,1,2.028.4c.217.1.293-.023.238-.211-.734-2.441-3.533-4.332-6.873-4.332m5.318,5.342a3.156,3.156,0,0,0-2.332.9.893.893,0,0,0,.026.623c1.453-.5,2.736-.517,3.353.174a1.117,1.117,0,0,0,.436-.883c0-.484-.49-.818-1.483-.818m-11.685,1.7c.7-.7,2.178-.672,3.711-.105.066-.764-1.3-1.6-2.664-1.6-.992,0-1.485.334-1.485.818a1.113,1.113,0,0,0,.438.883m23.026-12.6a11.882,11.882,0,0,0-6.782,2.6,26.788,26.788,0,0,1,3.051-6.076,13.1,13.1,0,0,0-8.215,3.685l-1.606-4.206,3.563-3.147-4.77-.336-1.9-4.433-1.9,4.433-4.77.336,3.561,3.147-1.6,4.206a13.1,13.1,0,0,0-8.217-3.685,26.876,26.876,0,0,1,3.053,6.076,11.883,11.883,0,0,0-6.785-2.6,31.9,31.9,0,0,1,4.025,6.534.439.439,0,0,0,.643.215,27.032,27.032,0,0,1,23.99,0,.437.437,0,0,0,.641-.215,31.856,31.856,0,0,1,4.024-6.534m5.759,15.9c5.178-1.795,8.576,3.344,12.568,2.145-3.873-4.112-7.021-8.791-6.607-14.178a.321.321,0,0,0-.527-.307,9.4,9.4,0,0,0-3.782,6.182,9.359,9.359,0,0,0-8.6-.928,27.162,27.162,0,0,1,6.945,7.086" fill="#006241"/>
    <path id="路径_103" data-name="路径 103" d="M177.089,197.64a2.991,2.991,0,1,1-2.99,2.988,2.975,2.975,0,0,1,2.99-2.988m0,5.547a2.557,2.557,0,1,0-2.459-2.559,2.486,2.486,0,0,0,2.459,2.559m-1.14-4.309h1.32c.826,0,1.217.329,1.217,1a.9.9,0,0,1-.922.957l1.006,1.542H178l-.95-1.5h-.568v1.5h-.531Zm.531,1.559h.549c.471,0,.93-.023.93-.588,0-.482-.418-.537-.782-.537h-.7Z" fill="#006241"/>
    <path id="路径_104" data-name="路径 104" d="M216.793,210.153A1.794,1.794,0,1,1,215,211.945a1.784,1.784,0,0,1,1.794-1.792m0,3.325a1.534,1.534,0,1,0-1.475-1.533,1.491,1.491,0,0,0,1.475,1.533m-.684-2.583h.791c.5,0,.73.2.73.6a.542.542,0,0,1-.553.574l.6.924h-.343l-.569-.9h-.341v.9h-.318Zm.318.934h.329c.282,0,.558-.014.558-.353,0-.289-.251-.32-.469-.32h-.418Z" fill="#231f20"/>
    <path id="路径_105" data-name="路径 105" d="M173.861,216.8c0,3.639-2.031,5.586-5.828,5.586-3.726,0-5.829-2-5.829-5.551v-6.449h4.19v6.244c0,1.731.477,2.494,1.6,2.494s1.676-.693,1.676-2.672v-6.066h4.188Z" fill="#231f20"/>
    <path id="路径_106" data-name="路径 106" d="M113.775,213.375v8.779h-4.233v-8.779H106v-2.984h11.316v2.984Z" fill="#231f20"/>
    <path id="路径_107" data-name="路径 107" d="M124.448,213.073,123.4,217.1h2.115Zm2.725,9.082L126.465,220h-3.976l-.751,2.156h-4.22l4.282-11.764h5.358l4.234,11.764Z" fill="#231f20"/>
    <path id="路径_108" data-name="路径 108" d="M187.443,221.237l-1.27-3.049a4.209,4.209,0,0,1-2.736,1.069,2.831,2.831,0,0,1-2.765-3.034c0-1.685.972-3.1,2.7-3.1a4.6,4.6,0,0,1,2.8,1.144l1.25-2.978a9.89,9.89,0,0,0-4.722-1.135,5.929,5.929,0,0,0-6.26,6.035c0,3.8,2.627,6.2,6.377,6.2a8.556,8.556,0,0,0,4.623-1.154" fill="#231f20"/>
    <path id="路径_109" data-name="路径 109" d="M196.961,222.155l-2.652-4.289v4.289H190.2V210.391h4.11V214.7l2.484-4.307h4.594l-3.862,5.8,4.356,5.967Z" fill="#231f20"/>
    <path id="路径_110" data-name="路径 110" d="M98.925,222.391c2.668,0,5.433-.951,5.433-3.959,0-2.713-2.308-3.453-4.108-3.838-1.357-.293-2.007-.43-2.007-.974,0-.719.914-.778,1.4-.778a6.525,6.525,0,0,1,3.336,1.094l1.1-2.68a12.665,12.665,0,0,0-4.8-1.1c-2.765,0-4.931,1.336-4.931,4.025,0,2.2,1.672,3.053,3.516,3.51,1.276.314,2.1.408,2.1,1.043s-.629.816-1.233.816a5.481,5.481,0,0,1-3.419-1.265l-1.328,2.6a9.215,9.215,0,0,0,4.945,1.514" fill="#231f20"/>
    <path id="路径_111" data-name="路径 111" d="M208.112,222.391c2.664,0,5.432-.951,5.432-3.959,0-2.713-2.309-3.453-4.11-3.838-1.355-.293-2.006-.43-2.006-.974,0-.719.914-.778,1.4-.778a6.518,6.518,0,0,1,3.334,1.094l1.1-2.68a12.672,12.672,0,0,0-4.8-1.1c-2.769,0-4.935,1.336-4.935,4.025,0,2.2,1.674,3.053,3.519,3.51,1.276.314,2.093.408,2.093,1.043s-.627.816-1.233.816a5.485,5.485,0,0,1-3.418-1.265l-1.328,2.6a9.226,9.226,0,0,0,4.948,1.514" fill="#231f20"/>
    <path id="路径_112" data-name="路径 112" d="M142.55,217.758a3.532,3.532,0,0,0,2.22-3.332c0-2.775-1.9-4.035-4.591-4.035h-6.354v11.764H137.9v-3.492h1.029l2.119,3.492h4.4Zm-1.907-3.316a1.153,1.153,0,0,1-1.29,1.219H137.9v-2.453h1.463a1.123,1.123,0,0,1,1.275,1.2Z" fill="#231f20"/>
    <path id="路径_113" data-name="路径 113" d="M156.84,216.145a2.493,2.493,0,0,0,2.281-2.627c0-2-1.5-3.127-4.142-3.127h-6.707v11.763h6.441c3.11,0,4.658-1.1,4.658-3.318a2.558,2.558,0,0,0-2.531-2.691m-4.533-3.2h1.475c.784,0,1.289.335,1.289,1.023v.029c0,.658-.493,1.041-1.3,1.041h-1.461Zm2.826,5.564c0,.7-.5,1.1-1.332,1.1h-1.494V217.4h1.509c.8,0,1.317.355,1.317,1.08Z" fill="#231f20"/>
    <path id="路径_114" data-name="路径 114" d="M114.506,235.028h-.738v3.163h-2.229v-9.2h3.732c2.217,0,3.553.973,3.553,2.917a2.864,2.864,0,0,1-2.061,2.917l2.281,3.37h-2.58Zm-.738-1.517h1.062c1.077,0,1.608-.479,1.608-1.374s-.557-1.283-1.608-1.283h-1.062Z" fill="#231f20"/>
    <path id="路径_115" data-name="路径 115" d="M126.38,230.854v1.764h2.748V234.3H126.38v2.023h3.2v1.866H124.15v-9.2h5.432v1.867Z" fill="#231f20"/>
    <path id="路径_116" data-name="路径 116" d="M148.3,228.987l-3.138,9.2h-2l-1.983-6.028-2,6.028h-2.009l-3.111-9.2h2.449l1.867,5.976,1.931-5.976h1.958l1.931,5.976,1.867-5.976Z" fill="#231f20"/>
    <path id="路径_117" data-name="路径 117" d="M156.863,236.169h-3.02l-.648,2.023H151l3.24-9.2h2.5l3.228,9.2h-2.462Zm-.454-1.452-1.049-3.253-1.051,3.253Z" fill="#231f20"/>
    <path id="路径_118" data-name="路径 118" d="M167.477,235.028h-.739v3.163h-2.229v-9.2h3.733c2.217,0,3.552.973,3.552,2.917a2.863,2.863,0,0,1-2.061,2.917l2.281,3.37h-2.58Zm-.739-1.517H167.8c1.076,0,1.608-.479,1.608-1.374s-.558-1.283-1.608-1.283h-1.063Z" fill="#231f20"/>
    <path id="路径_119" data-name="路径 119" d="M177.022,228.988h3.266c2.761,0,4.667,1.465,4.667,4.6s-1.893,4.6-4.667,4.6h-3.266Zm3.227,7.3c1.31,0,2.334-.752,2.334-2.7s-1.037-2.7-2.334-2.7h-1v5.393Z" fill="#231f20"/>
    <path id="路径_120" data-name="路径 120" d="M189.088,236.844l.933-1.439a3.662,3.662,0,0,0,2.45,1.192c.726,0,1.154-.324,1.154-.856,0-1.425-4.175-.919-4.175-4.135,0-1.892,1.556-2.761,3.177-2.761a3.52,3.52,0,0,1,3.124,1.323l-.947,1.374a3.376,3.376,0,0,0-2.06-.92c-.623,0-1.051.3-1.051.79,0,1.309,4.291.959,4.291,4.018,0,2-1.426,2.956-3.267,2.956a4.291,4.291,0,0,1-3.629-1.542" fill="#231f20"/>
  </g>
</svg>
